HIERARCHY
ROOT Hips
{
	OFFSET	0.00	0.00	0.00
	CHANNELS 6 Xposition Yposition Zposition Zrotation Xrotation Yrotation
	JOINT LeftUpLeg
	{
		OFFSET	 0.126116	-0.065224	 0.014019
		CHANNELS 3 Zrotation Xrotation Yrotation
		JOINT LeftLeg
		{
			OFFSET	 0.000000	 0.569914	 0.000000
			CHANNELS 3 Zrotation Xrotation Yrotation
			JOINT LeftFoot
			{
				OFFSET	 0.000000	 0.544423	 0.000000
				CHANNELS 3 Zrotation Xrotation Yrotation
				JOINT LeftToeBase
				{
					OFFSET	 0.000000	 0.207117	 0.000000
					CHANNELS 3 Zrotation Xrotation Yrotation
					End Site
					{
						OFFSET	 0.000000	 0.207117	 0.000000
					}
				}
			}
		}
	}
	JOINT RightUpLeg
	{
		OFFSET	-0.124023	-0.065224	 0.008373
		CHANNELS 3 Zrotation Xrotation Yrotation
		JOINT RightLeg
		{
			OFFSET	 0.000000	 0.570047	 0.000000
			CHANNELS 3 Zrotation Xrotation Yrotation
			JOINT RightFoot
			{
				OFFSET	 0.000000	 0.544354	 0.000000
				CHANNELS 3 Zrotation Xrotation Yrotation
				JOINT RightToeBase
				{
					OFFSET	 0.000000	 0.207540	 0.000000
					CHANNELS 3 Zrotation Xrotation Yrotation
					End Site
					{
						OFFSET	 0.000000	 0.207540	 0.000000
					}
				}
			}
		}
	}
	JOINT Spine
	{
		OFFSET	 0.000184	 0.117403	 0.007763
		CHANNELS 3 Zrotation Xrotation Yrotation
		JOINT Spine1
		{
			OFFSET	 0.000000	 0.137269	 0.000000
			CHANNELS 3 Zrotation Xrotation Yrotation
			JOINT Spine2
			{
				OFFSET	 0.000000	 0.156879	 0.000000
				CHANNELS 3 Zrotation Xrotation Yrotation
				JOINT LeftShoulder
				{
					OFFSET	 0.080501	 0.160143	 0.002496
					CHANNELS 3 Zrotation Xrotation Yrotation
					JOINT LeftArm
					{
						OFFSET	 0.000000	 0.164363	 0.000000
						CHANNELS 3 Zrotation Xrotation Yrotation
						JOINT LeftForeArm
						{
							OFFSET	 0.000000	 0.364576	 0.000000
							CHANNELS 3 Zrotation Xrotation Yrotation
							JOINT LeftHand
							{
								OFFSET	 0.000000	 0.360812	 0.000000
								CHANNELS 3 Zrotation Xrotation Yrotation
								JOINT LeftHandIndex1
								{
									OFFSET	 0.000000	 0.086006	 0.000000
									CHANNELS 3 Zrotation Xrotation Yrotation
									JOINT LeftHandIndex2
									{
										OFFSET	 0.000000	 0.047237	 0.000000
										CHANNELS 3 Zrotation Xrotation Yrotation
										JOINT LeftHandIndex3
										{
											OFFSET	-0.004284	 0.038165	 0.000551
											CHANNELS 3 Zrotation Xrotation Yrotation
											End Site
											{
												OFFSET	-0.004284	 0.038165	 0.000551
											}
										}
									}
								}
							}
						}
					}
				}
				JOINT Neck
				{
					OFFSET	 0.000000	 0.176489	 0.000000
					CHANNELS 3 Zrotation Xrotation Yrotation
					JOINT Head
					{
						OFFSET	 0.000000	 0.077941	 0.001747
						CHANNELS 3 Zrotation Xrotation Yrotation
						End Site
						{
							OFFSET	 0.000000	 0.077941	 0.001747
						}
					}
				}
				JOINT RightShoulder
				{
					OFFSET	-0.080363	 0.159706	-0.000306
					CHANNELS 3 Zrotation Xrotation Yrotation
					JOINT RightArm
					{
						OFFSET	 0.000000	 0.164196	 0.000000
						CHANNELS 3 Zrotation Xrotation Yrotation
						JOINT RightForeArm
						{
							OFFSET	 0.000000	 0.365611	 0.000000
							CHANNELS 3 Zrotation Xrotation Yrotation
							JOINT RightHand
							{
								OFFSET	 0.000000	 0.360648	 0.000000
								CHANNELS 3 Zrotation Xrotation Yrotation
								JOINT RightHandIndex1
								{
									OFFSET	 0.000000	 0.069977	 0.000000
									CHANNELS 3 Zrotation Xrotation Yrotation
									JOINT RightHandIndex2
									{
										OFFSET	 0.000000	 0.052305	 0.000000
										CHANNELS 3 Zrotation Xrotation Yrotation
										JOINT RightHandIndex3
										{
											OFFSET	 0.009002	 0.042196	 0.000782
											CHANNELS 3 Zrotation Xrotation Yrotation
											End Site
											{
												OFFSET	 0.009002	 0.042196	 0.000782
											}
										}
									}
								}
							}
						}
					}
				}
			}
		}
	}
}
MOTION
Frames:    13
Frame Time: 0.03333334
 0.001125	 1.268997	-0.011435	 0.300924	 2.025127	 177.801000	 175.941000	 4.146784	 12.918660	 3.527896	-17.311590	 2.914424	-3.544657	 71.573530	 6.647135	 1.331492	 28.938720	-2.729976	-175.281900	 4.403172	-11.716100	-5.138301	-16.460610	-7.506444	-3.121309	 70.167020	 2.177655	-1.308232	 28.614770	 2.423357	-1.136522	 4.040913	 7.570065	-0.749825	-0.042489	 3.331705	-0.303469	 2.040370	-12.151200	-113.435400	 5.429989	 92.963520	 3.893547	 49.497120	 38.870250	 33.222630	-1.236607	-10.062190	-9.494809	-15.375850	 9.897724	-6.580301	 5.266122	 0.000000	 0.000000	 0.000000	 0.000000	 0.000000	 0.000000	 0.000000	 5.030170	-0.484750	 0.230579	 1.804824	 1.988911	-0.231371	 114.285200	-4.869851	-88.067270	-57.346370	 17.260250	 38.941810	-103.144000	-1.898943	 7.749825	-25.782350	-22.862090	-52.990890	-0.379791	 11.157190	 0.748317	 11.985770	 9.879757	-2.217115	-8.365172	 3.460804	 0.084364
 0.002943	 1.268954	-0.010153	 0.283041	 2.084879	 178.034500	 175.992100	 4.156617	 13.149620	 3.528908	-17.316260	 3.040654	-3.317934	 71.532120	 6.294645	 1.331492	 28.938720	-2.729976	-175.242500	 4.392885	-11.503720	-5.128234	-16.430170	-7.502109	-3.166288	 70.145150	 2.185308	-1.306166	 28.587810	 2.473023	-1.123606	 4.147255	 7.638031	-0.671007	-0.105519	 3.367227	-0.389610	 2.328211	-12.239980	-113.436100	 5.446998	 92.979820	 3.736198	 49.764150	 38.538440	 33.246010	-1.231295	-10.234400	-8.665159	-15.088000	 10.141630	-6.580301	 5.266122	 0.000000	 0.000000	 0.000000	 0.000000	 0.000000	 0.000000	 0.000000	 5.086812	-0.453910	 0.139671	 2.331318	 1.858585	-0.460090	 114.282100	-4.847716	-88.078540	-54.574620	 18.147830	 30.976510	-108.165600	-1.840896	 7.732461	-21.081410	-22.075100	-51.310300	-0.409677	 12.010370	 0.754323	 11.999910	 10.714620	-2.397366	-8.373933	 3.921303	 0.054931
 0.005001	 1.268883	-0.008850	 0.259890	 2.145725	 178.268100	 176.041600	 4.172596	 13.381120	 3.531590	-17.328590	 3.167471	-3.101861	 71.492520	 5.946488	 1.331492	 28.938720	-2.729976	-175.203200	 4.393883	-11.292360	-5.121290	-16.409180	-7.498289	-3.208968	 70.119670	 2.191535	-1.304075	 28.560870	 2.522652	-1.113044	 4.254000	 7.764815	-0.648004	-0.149804	 3.466165	-0.451095	 2.604235	-12.317030	-113.436800	 5.463961	 92.996100	 4.006296	 50.276950	 37.886970	 32.758440	-1.203857	-10.418480	-7.667132	-14.852140	 10.495460	-6.580301	 5.266122	 0.000000	 0.000000	 0.000000	 0.000000	 0.000000	 0.000000	 0.000000	 5.143476	-0.423176	 0.048779	 2.856699	 1.727332	-0.684658	 114.279000	-4.825613	-88.089780	-52.361610	 18.691790	 22.580360	-112.574200	-1.775849	 7.740162	-17.036440	-21.799010	-50.142110	-0.439744	 12.863290	 0.760802	 12.016760	 11.549180	-2.578288	-8.382459	 4.381598	 0.025565
 0.007404	 1.268781	-0.007404	 0.229908	 2.213274	 178.526400	 176.091800	 4.199553	 13.637470	 3.536330	-17.350440	 3.308198	-2.869726	 71.447810	 5.565042	 1.331492	 28.938720	-2.729976	-175.160000	 4.406301	-11.059140	-5.118090	-16.399490	-7.494937	-3.251710	 70.093190	 2.196019	-1.301736	 28.531110	 2.577445	-1.103361	 4.371912	 7.942127	-0.660844	-0.184915	 3.618178	-0.502515	 2.899359	-12.387990	-113.437600	 5.482719	 93.014110	 4.724243	 51.031640	 36.842220	 31.771800	-1.153987	-10.630980	-6.432749	-14.611050	 10.944500	-6.580301	 5.266122	 0.000000	 0.000000	 0.000000	 0.000000	 0.000000	 0.000000	 0.000000	 5.206103	-0.389341	-0.051629	 3.435881	 1.581267	-0.927709	 114.275600	-4.801188	-88.102220	-50.797420	 18.872540	 13.157610	-116.188000	-1.712029	 7.795766	-13.513930	-22.017870	-49.068380	-0.473188	 13.805260	 0.768521	 12.038570	 12.470810	-2.779046	-8.391604	 4.889923	-0.006807
 0.009738	 1.268661	-0.006000	 0.197737	 2.279895	 178.780000	 176.133800	 4.235958	 13.889590	 3.542098	-17.377040	 3.446794	-2.640842	 71.398040	 5.190195	 1.331492	 28.938720	-2.729976	-175.118000	 4.426447	-10.831020	-5.119756	-16.404530	-7.492556	-3.289656	 70.073650	 2.199672	-1.299408	 28.501900	 2.631222	-1.094949	 4.487031	 8.122390	-0.685091	-0.210877	 3.779303	-0.548890	 3.181716	-12.442480	-113.438300	 5.501130	 93.031780	 5.774879	 51.861980	 35.535010	 30.506860	-1.091324	-10.843670	-5.158989	-14.355110	 11.370990	-6.580301	 5.266122	 0.000000	 0.000000	 0.000000	 0.000000	 0.000000	 0.000000	 0.000000	 5.267645	-0.356231	-0.150235	 4.003438	 1.436820	-1.161207	 114.272300	-4.777208	-88.114400	-50.107360	 18.757710	 4.225222	-118.216100	-1.670614	 7.903462	-11.245850	-22.503880	-47.742230	-0.506284	 14.729960	 0.776682	 12.063290	 13.375470	-2.977197	-8.400311	 5.388947	-0.038532
 0.011878	 1.268531	-0.004637	 0.165023	 2.346711	 179.032800	 176.165800	 4.282700	 14.141280	 3.548601	-17.406980	 3.585225	-2.405763	 71.338710	 4.814525	 1.331492	 28.938720	-2.729976	-175.077000	 4.450502	-10.603720	-5.126569	-16.425130	-7.491248	-3.322810	 70.065960	 2.202949	-1.297060	 28.472810	 2.684760	-1.086867	 4.600363	 8.275311	-0.692308	-0.235515	 3.919132	-0.604179	 3.459401	-12.481090	-113.439100	 5.519469	 93.049380	 7.043863	 52.668030	 34.037990	 29.157810	-1.024444	-11.053490	-3.925662	-14.043650	 11.706190	-6.580301	 5.266122	 0.000000	 0.000000	 0.000000	 0.000000	 0.000000	 0.000000	 0.000000	 5.328985	-0.323365	-0.248464	 4.567574	 1.291957	-1.388368	 114.268900	-4.753310	-88.126560	-49.819710	 18.448280	-3.949980	-118.860600	-1.653639	 8.056069	-10.421910	-22.893820	-45.692970	-0.539516	 15.650640	 0.785395	 12.091200	 14.276110	-3.175655	-8.408710	 5.885870	-0.070075
 0.013623	 1.268400	-0.003373	 0.134692	 2.410775	 179.277000	 176.185000	 4.339834	 14.384400	 3.555335	-17.437950	 3.719461	-2.166228	 71.268460	 4.447373	 1.331492	 28.938720	-2.729976	-175.037600	 4.475966	-10.384440	-5.138763	-16.461990	-7.491157	-3.349878	 70.074780	 2.206365	-1.294759	 28.444670	 2.736545	-1.078343	 4.708053	 8.367945	-0.658334	-0.267794	 4.005100	-0.677716	 3.729248	-12.502750	-113.439800	 5.537199	 93.066400	 8.309015	 53.318170	 32.537910	 28.022460	-0.966796	-11.248130	-2.890556	-13.654640	 11.873800	-6.580301	 5.266122	 0.000000	 0.000000	 0.000000	 0.000000	 0.000000	 0.000000	 0.000000	 5.388383	-0.291668	-0.343532	 5.112370	 1.150923	-1.602955	 114.265700	-4.730223	-88.138290	-49.295830	 17.822070	-11.002250	-118.548800	-1.654841	 8.233194	-11.261350	-22.926780	-42.749060	-0.571945	 16.541130	 0.794391	 12.121380	 15.147140	-3.368820	-8.416583	 6.366602	-0.100548
 0.015004	 1.268242	-0.002099	 0.045390	 2.444725	 179.565600	 176.131600	 4.416635	 14.717610	 3.546063	-17.395250	 4.000723	-1.483848	 71.183190	 3.612611	 1.331492	 28.938720	-2.729976	-175.052800	 4.596996	-10.022000	-5.193872	-16.628400	-7.411668	-3.157194	 70.180090	 1.966122	-1.294119	 28.437490	 2.762932	-1.070439	 4.729840	 8.401277	-0.692968	-0.036489	 4.040966	-0.752002	 3.624742	-12.535650	-113.440100	 5.473225	 93.045190	 9.707553	 53.922310	 31.563740	 26.777610	-0.903581	-11.441440	-1.406454	-14.003640	 11.912270	-6.580301	 5.266122	 0.000000	 0.000000	 0.000000	 0.000000	 0.000000	 0.000000	 0.000000	 5.266550	-0.275703	-0.396558	 5.112497	 1.039094	-1.741277	 114.259500	-4.687632	-88.165100	-46.752090	 21.535800	-14.177890	-117.502200	-1.669618	 8.432997	-4.786800	-25.433230	-37.487550	-0.612847	 17.652830	 0.806414	 12.163530	 16.234400	-3.611798	-8.425179	 6.909554	-0.134921
 0.016229	 1.268060	-0.000861	-0.048878	 2.477466	 179.856500	 176.063400	 4.514867	 15.055610	 3.537078	-17.353930	 4.288433	-0.787725	 71.076000	 2.764060	 1.331492	 28.938720	-2.729976	-175.068500	 4.728551	-9.654605	-5.256674	-16.817600	-7.331888	-2.957564	 70.299000	 1.719432	-1.293524	 28.430900	 2.788648	-1.063864	 4.748162	 8.441247	-0.720528	 0.221364	 4.087965	-0.832770	 3.495954	-12.552480	-113.440500	 5.406591	 93.022770	 11.677250	 54.627620	 30.136320	 25.121160	-0.820635	-11.640220	 0.186485	-14.339170	 11.936660	-6.580301	 5.266122	 0.000000	 0.000000	 0.000000	 0.000000	 0.000000	 0.000000	 0.000000	 5.138871	-0.260038	-0.448474	 5.095902	 0.928654	-1.873903	 114.253100	-4.644317	-88.192450	-42.910010	 24.593750	-16.849100	-115.701900	-1.696812	 8.657306	 0.638060	-26.975720	-30.399810	-0.654671	 18.775540	 0.819486	 12.211250	 17.332250	-3.859449	-8.433514	 7.456326	-0.169494
 0.017255	 1.267873	 0.000286	-0.139998	 2.508675	-179.866200	 175.989100	 4.618084	 15.378020	 3.528828	-17.315890	 4.563164	-0.126665	 70.960730	 1.960829	 1.331492	 28.938720	-2.729976	-175.084800	 4.858391	-9.304561	-5.321347	-17.012100	-7.257847	-2.762617	 70.421810	 1.483298	-1.292953	 28.424640	 2.813119	-1.058147	 4.764388	 8.465011	-0.738037	 0.472307	 4.123019	-0.915034	 3.366542	-12.551760	-113.440800	 5.343163	 93.001420	 13.977360	 55.333570	 28.415930	 23.238830	-0.726286	-11.830810	 1.779385	-14.632050	 11.905540	-6.580301	 5.266122	 0.000000	 0.000000	 0.000000	 0.000000	 0.000000	 0.000000	 0.000000	 5.017382	-0.245024	-0.497847	 5.079731	 0.824402	-1.996056	 114.247100	-4.603097	-88.218470	-38.645030	 26.774820	-19.112800	-113.371800	-1.730612	 8.891222	 4.949483	-27.172250	-22.416950	-0.695002	 19.844220	 0.832821	 12.261590	 18.377080	-4.097501	-8.441146	 7.976691	-0.202363
 0.018161	 1.267677	 0.001422	-0.232027	 2.539691	-179.586100	 175.908000	 4.723059	 15.703420	 3.520097	-17.275650	 4.841395	 0.541234	 70.837450	 1.153886	 1.331492	 28.938720	-2.729976	-175.105000	 4.992846	-8.951420	-5.390358	-17.219170	-7.184673	-2.557605	 70.554280	 1.242729	-1.292374	 28.418310	 2.837841	-1.052295	 4.779292	 8.454686	-0.748116	 0.718043	 4.129444	-1.002436	 3.235248	-12.533480	-113.441200	 5.279099	 92.979890	 16.585160	 56.021090	 26.426250	 21.134100	-0.620011	-12.021450	 3.443934	-14.911710	 11.780350	-6.580301	 5.266122	 0.000000	 0.000000	 0.000000	 0.000000	 0.000000	 0.000000	 0.000000	 4.894650	-0.229748	-0.547697	 5.063017	 0.719952	-2.115217	 114.241000	-4.561416	-88.244770	-34.234150	 28.432310	-21.197270	-110.437200	-1.769456	 9.147507	 8.578460	-26.022190	-13.705610	-0.736309	 20.924020	 0.847207	 12.317450	 19.432580	-4.340536	-8.448562	 8.502444	-0.235546
 0.018928	 1.267483	 0.002521	-0.320373	 2.569130	-179.313100	 175.825400	 4.819186	 16.020100	 3.511260	-17.234910	 5.113684	 1.195541	 70.717950	 0.369689	 1.331492	 28.938720	-2.729976	-175.130300	 5.126497	-8.607233	-5.460636	-17.429470	-7.114690	-2.344966	 70.691570	 1.003564	-1.291806	 28.412130	 2.861976	-1.045736	 4.792103	 8.392035	-0.751843	 0.938565	 4.089084	-1.090620	 3.112004	-12.497550	-113.441600	 5.216548	 92.958830	 19.180000	 56.601140	 24.426730	 19.070190	-0.514503	-12.201400	 5.053962	-15.177370	 11.527910	-6.580301	 5.266122	 0.000000	 0.000000	 0.000000	 0.000000	 0.000000	 0.000000	 0.000000	 4.774842	-0.214732	-0.596333	 5.046329	 0.618873	-2.227143	 114.235100	-4.520739	-88.270440	-30.159210	 29.764500	-23.129860	-107.069100	-1.808073	 9.415909	 11.395000	-23.688890	-5.154625	-0.777210	 21.978090	 0.862163	 12.376950	 20.462720	-4.580415	-8.455514	 9.015724	-0.267919
 0.019580	 1.267296	 0.003603	-0.405068	 2.597457	-179.042400	 175.743100	 4.900471	 16.332960	 3.502085	-17.192570	 5.384165	 1.849993	 70.607370	-0.406155	 1.331492	 28.938720	-2.729976	-175.162600	 5.259836	-8.266242	-5.532291	-17.643390	-7.046447	-2.117743	 70.834950	 0.760215	-1.291240	 28.406010	 2.885891	-1.037737	 4.802831	 8.259465	-0.750899	 1.125762	 3.985369	-1.179275	 3.000626	-12.443210	-113.441900	 5.154560	 92.938000	 21.367530	 57.003520	 22.751840	 17.411730	-0.427924	-12.367470	 6.460002	-15.436770	 11.113660	-6.580301	 5.266122	 0.000000	 0.000000	 0.000000	 0.000000	 0.000000	 0.000000	 0.000000	 4.656130	-0.199751	-0.644499	 5.029444	 0.519599	-2.333461	 114.229300	-4.480424	-88.295850	-26.490700	 31.061920	-25.086610	-103.353600	-1.842448	 9.695888	 13.470520	-20.439880	 2.907947	-0.818335	 23.022360	 0.877900	 12.440870	 21.483040	-4.820833	-8.462123	 9.524335	-0.299983
